<svg width="31" height="31" viewBox="0 0 31 31" fill="none" xmlns="http://www.w3.org/2000/svg">
<path d="M8.81821 7.97603C8.5857 8.34404 8.27547 8.65672 7.90931 8.89213C7.54315 9.12753 7.12991 9.27997 6.69858 9.33874C6.20775 9.40849 5.72079 9.48341 5.23383 9.56478C3.87371 9.79082 2.90625 10.9882 2.90625 12.3664V23.25C2.90625 24.0208 3.21244 24.76 3.75747 25.305C4.3025 25.85 5.04171 26.1562 5.8125 26.1562H25.1875C25.9583 26.1562 26.6975 25.85 27.2425 25.305C27.7876 24.76 28.0937 24.0208 28.0937 23.25V12.3664C28.0937 10.9882 27.125 9.79082 25.7662 9.56478C25.2788 9.48359 24.7906 9.40823 24.3014 9.33874C23.8703 9.27979 23.4573 9.12727 23.0914 8.89187C22.7255 8.65647 22.4155 8.34389 22.1831 7.97603L21.1213 6.2762C20.8829 5.88883 20.5546 5.56461 20.1643 5.331C19.7739 5.0974 19.3331 4.96127 18.879 4.93416C16.628 4.81325 14.372 4.81325 12.121 4.93416C11.6669 4.96127 11.2261 5.0974 10.8357 5.331C10.4454 5.56461 10.1171 5.88883 9.87867 6.2762L8.81821 7.97603Z" stroke="white" stroke-width="1.5" stroke-linecap="round" stroke-linejoin="round"/>
<path d="M21.3125 16.4687C21.3125 18.0103 20.7001 19.4888 19.6101 20.5788C18.52 21.6689 17.0416 22.2812 15.5 22.2812C13.9584 22.2812 12.48 21.6689 11.3899 20.5788C10.2999 19.4888 9.6875 18.0103 9.6875 16.4687C9.6875 14.9272 10.2999 13.4487 11.3899 12.3587C12.48 11.2686 13.9584 10.6563 15.5 10.6562C17.0416 10.6563 18.52 11.2686 19.6101 12.3587C20.7001 13.4487 21.3125 14.9272 21.3125 16.4687ZM24.2187 13.5625H24.2291V13.5728H24.2187V13.5625Z" stroke="white" stroke-width="1.5" stroke-linecap="round" stroke-linejoin="round"/>
</svg>
