<svg width="24" height="24" viewBox="0 0 24 24" fill="none" xmlns="http://www.w3.org/2000/svg">
<path d="M16.5 18.75H7.49998M16.5 18.75C17.2956 18.75 18.0587 19.0661 18.6213 19.6287C19.1839 20.1913 19.5 20.9544 19.5 21.75H4.49998C4.49998 20.9544 4.81605 20.1913 5.37866 19.6287C5.94127 19.0661 6.70433 18.75 7.49998 18.75M16.5 18.75V15.375C16.5 14.754 15.997 14.25 15.375 14.25H14.504M7.49998 18.75V15.375C7.49998 14.754 8.00398 14.25 8.62498 14.25H9.49698M14.504 14.25H9.49698M14.504 14.25C13.9423 13.28 13.6067 12.1957 13.522 11.078M9.49698 14.25C10.0583 13.2799 10.3936 12.1956 10.478 11.078M13.522 11.078C14.5299 10.8454 15.4697 10.3834 16.27 9.728M13.522 11.078C12.5205 11.309 11.4795 11.309 10.478 11.078M10.478 11.078C9.47038 10.8452 8.53002 10.3833 7.72998 9.728M5.24998 4.236C4.26798 4.379 3.29598 4.553 2.33398 4.756C2.55698 6.06479 3.20756 7.26273 4.18393 8.16238C5.16029 9.06202 6.40736 9.61261 7.72998 9.728M5.24998 4.236V4.5C5.24998 6.608 6.21598 8.49 7.72998 9.728M5.24998 4.236V2.721C7.45598 2.41 9.70998 2.25 12 2.25C14.291 2.25 16.545 2.41 18.75 2.72V4.236M18.75 4.236V4.5C18.75 6.608 17.784 8.49 16.27 9.728M18.75 4.236C19.7273 4.3782 20.6998 4.55163 21.666 4.756C21.443 6.06464 20.7926 7.26246 19.8164 8.16209C18.8403 9.06172 17.5924 9.6124 16.27 9.728" stroke="#FBB03F" stroke-width="1.5" stroke-linecap="round" stroke-linejoin="round"/>
</svg>
